<svg version="1.2" xmlns="http://www.w3.org/2000/svg" viewBox="0 0 1024 1024" width="1024" height="1024">
	<title>New Project</title>
	<style>
		.s0 { fill: #3dca8d;stroke: #445d57;stroke-miterlimit:10;stroke-width: 15 } 
	</style>
	<path id="Secux Linux" class="s0" aria-label="Secux
Linux"  d="m231.2 417.4q0 21.4-18 36.8-20.2 17.2-54 17.2-11 0-22.6-2-11.4-2.2-21.8-6.2-9-3.2-18.6-11.6-12.8-11.4-12.8-22.4 0-5.4 4.8-8.6 4.8-3.4 13.8-3.4 5.4 0 14.6 2.4 9.2 2.4 16.2 2.4h3.8q3.8 0 5.8-1 2-1 2-4.2 0-5.2-18.8-6.2-18.6-1.2-24.8-3.6-12.8-4.8-19.4-18-4.8-9.6-4.8-18.4 0-25.8 22-43 20.6-16 49-16 9.8 0 24.8 2.4 15 2.4 24.2 6.6 10.8 5 19.2 12.6 12 11 12 21.6 0 6.2-5.6 9.8-5.6 3.6-13.4 3.6-4.8 0-15.2-3-10.4-3-21.2-6.2-3 1-4.4 1.6-4.4 2.2-4.4 4.4 0 5.6 13.2 7.8 20.8 3.4 29.6 7.2 10.8 4.6 17.8 15 7 10.2 7 22.4zm155 26.4q0 15-17.4 22.2-15.4 6.4-42.2 6.4-20.8 0-37-2.8-23.2-4-31.4-13-8-9-12.6-26.2-4.4-17.2-4.4-43 0-19 3-35 4-21.8 12.6-28.2 10.4-7.8 24.8-10 9.6-1.4 38.2-1.4 20.8 0 28.6 0.8 16.4 1.6 25 6.8 10.8 6.4 10.8 19 0 14.2-10.4 21-8.6 5.6-23.6 5.6-9.4 0-14.2-0.6-4.6-0.8-9.6-1.8-1.2 0-3.2 1.2-2 1-2 2.4 0 3.6 3 4.8 3.2 1.2 10 1.2 2.6 0 5.2 0 2.8 0 5.6-0.2 10 0 15 2.4 6.8 3.4 6.8 12.2 0 7.4-3.6 13-3.6 5.4-10.2 5.4h-21.8q-5 0-9.8 3 1.2 2.6 2.8 3.6 1.6 0.8 4.6 0.8 2.8 0 4.6-0.2 8.6-1 10.2-1 18.8 0 30.6 8.2 12 8 12 23.4zm173.8-18.2q0 18.8-21.4 32.8-21.4 14-52.8 14-16.8 0-34.8-6.6-24-8.8-38.4-26.2-18.2-22-18.2-55.2 0-13.2 8-28.2 9.8-18.2 27.6-29.4 22-13.8 52.4-13.8 16 0 32.4 4 14 3.4 23.6 9.6 6.2 4 13.2 12.8 8.4 10.6 8.4 18 0 9.8-8 17-8.8 8-23.6 8-6.8 0-15-2.6-19.4-6.2-24.8-6.2-7.2 0-13.4 5.2-6 5.2-6 11.4 0 7.2 6.4 12.6 6.4 5.2 17.6 5.2 7.4 0 15.2-2.8 18-6.4 23.2-6.4 12.6 0 21 9.2 7.4 8.2 7.4 17.6zm197.4-33.6q0 39.4-24.8 59.6-21 17.2-58.8 20.4-5.4 0.6-9 0.6-3.8 0-9.2-0.6-48.8-4.2-69-30.2-17-21.8-17-64.2 0-26 9.8-43 11-19 31-19 13 0 26.6 13 16.2 15.6 16.2 37.6v19q0 3 2.6 7.2 2.8 4.2 6.2 4.2 7.6 0 9.2-6.6-0.2-21.2 2.4-38.4 2.6-17.4 14.4-28.8 11.2-10.6 22.6-10.6 20 0 33.4 23 13.4 23 13.4 56.8zm189 51.6q0 14.4-9 21.8-8.2 6.8-22 6.8-15.8 0-29.4-7.4-13-8.2-26-16.4-11.8 9.4-24.8 16.2-14.2 7.6-28 7.6-16 0-24.6-8.6-8.4-8.8-8.4-22.8 0-16.6 11.4-30 11.4-13.4 11.4-17 0-1.4-8.4-7.8-6.2-4.8-12.6-13.6-3.8-5.2-6.8-14-3-9-3-14.8 0-13.6 11-23.2 9.6-8.4 20.2-8.4 15.4 0 28.6 8.6 13.2 9.6 26.6 19 15-11 28.8-19.2 15.4-9.2 27-9.2 15.4 0 25 9.6 9.8 9.4 9.8 24.6 0 12-7 23.4-7.8 10.8-15.4 21.4 10 11 17.4 24.2 8.2 14.4 8.2 29.2zm-696.2 228.6q0 16.8-16.4 28.2-15.6 10.8-35.8 10.8h-32.8q-5.6 0-22.6-3.2-22-4.2-27.8-9.2-6.6-5.8-13.4-22.6-9.2-23-9.2-50.4 0-29.4 11.4-50.6 12.8-23.6 33.8-23.6 12.8 0 26.8 12.6 16.6 15 16.6 35.8v24.6q0 1.8-0.8 6-0.8 4.2-0.8 6 0 4.4 4 4.4 1 0 11-3 4.8-1.4 11.6-1.4 17.2 0 30.8 10.6 13.6 10.4 13.6 25zm98.4-40.2q0 18.2-3 33.2-4 20.4-12.8 32.4-10.6 14.6-27.2 14.6-22.4 0-35-22.8-11-20-11-49v-25.6q0-23.2 11.2-41.6 12.4-20.4 31-20.4 25 0 37.4 28.2 9.4 21.4 9.4 51zm195.6 3.2q0 29.6-9 49.4-11.6 25.4-35.4 25.4-10.2 0-19.4-3.6-9-3.6-13.8-8.6-9-9.2-13.4-16.8-5.8-9.8-7.8-9.8-1.2 0-6 13-3 8.2-8.6 14.6-5.4 6.2-14 9.6-6.8 2.6-12.8 2.6-24.4 0-37-28-9.6-21.2-9.6-47.8 0-31 10.4-54.4 13.4-30 38.6-30 19 0 35.8 20.6 9.4 13 12.8 17.2 4.6-9.8 11.6-19.4 14.2-19.4 29.8-19.4 24.8 0 37.8 31.4 10 24.2 10 54zm197.2-3.2q0 39.4-24.8 59.6-21 17.2-58.8 20.4-5.4 0.6-9 0.6-3.8 0-9.2-0.6-48.8-4.2-69-30.2-17-21.8-17-64.2 0-26 9.8-43 11-19 31-19 13 0 26.6 13 16.2 15.6 16.2 37.6v19q0 3 2.6 7.2 2.8 4.2 6.2 4.2 7.6 0 9.2-6.6-0.2-21.2 2.4-38.4 2.6-17.4 14.4-28.8 11.2-10.6 22.6-10.6 20 0 33.4 23 13.4 23 13.4 56.8zm189 51.6q0 14.4-9 21.8-8.2 6.8-22 6.8-15.8 0-29.4-7.4-13-8.2-26-16.4-11.8 9.4-24.8 16.2-14.2 7.6-28 7.6-16 0-24.6-8.6-8.4-8.8-8.4-22.8 0-16.6 11.4-30 11.4-13.4 11.4-17 0-1.4-8.4-7.8-6.2-4.8-12.6-13.6-3.8-5.2-6.8-14-3-9-3-14.8 0-13.6 11-23.2 9.6-8.4 20.2-8.4 15.4 0 28.6 8.6 13.2 9.6 26.6 19 15-11 28.8-19.2 15.4-9.2 27-9.2 15.4 0 25 9.6 9.8 9.4 9.8 24.6 0 12-7 23.4-7.8 10.8-15.4 21.4 10 11 17.4 24.2 8.2 14.4 8.2 29.2z"/>
</svg>